#N canvas 827 239 527 327 12;
#X obj 314 339 pi2c_4encoder;
#X obj 314 371 route rotary button;
#X obj 314 407 route 0 1 2 3;
#X obj 410 407 route 0 1 2 3;
#X obj 414 461 tgl 25 0 empty empty empty 17 7 0 10 #e4e4e4 #4d4d4d #373737 0 1;
#X obj 446 461 tgl 25 0 empty empty empty 17 7 0 10 #e4e4e4 #4d4d4d #373737 0 1;
#X obj 478 461 tgl 25 0 empty empty empty 17 7 0 10 #e4e4e4 #4d4d4d #373737 0 1;
#X obj 510 461 tgl 25 0 empty empty empty 17 7 0 10 #e4e4e4 #4d4d4d #373737 0 1;
#X obj 321 440 vsl 12 128 -2.14748e+09 2.14748e+09 0 0 empty empty empty 0 -9 0 10 #e4e4e4 #4d4d4d #373737 0 1;
#X obj 340 440 vsl 12 128 -2.14748e+09 2.14748e+09 0 0 empty empty empty 0 -9 0 10 #e4e4e4 #4d4d4d #373737 0 1;
#X obj 359 440 vsl 11 128 -2.14748e+09 2.14748e+09 0 0 empty empty empty 0 -9 0 10 #e4e4e4 #4d4d4d #373737 0 1;
#X obj 377 440 vsl 12 128 -2.14748e+09 2.14748e+09 0 0 empty empty empty 0 -9 0 10 #e4e4e4 #4d4d4d #373737 0 1;
#X obj 314 299 metro 100;
#X obj 312 253 tgl 25 0 empty empty empty 17 7 0 10 #e4e4e4 #4d4d4d #373737 0 1;
#X obj 314 212 loadbang;
#X obj 97 252 bng 20 250 50 0 empty empty rainbow 0 -10 0 12 #fcfcfc #000000 #000000;
#N canvas 700 318 450 300 looper 0;
#X obj 84 29 inlet num;
#X obj 76 113 until;
#X obj 75 149 f;
#X obj 114 144 + 1;
#X obj 169 140 sel 0;
#X obj 87 71 t f f;
#X obj 114 170 mod;
#X obj 74 224 outlet nums;
#X connect 0 0 5 0;
#X connect 1 0 2 0;
#X connect 2 0 3 0;
#X connect 2 0 7 0;
#X connect 3 0 6 0;
#X connect 4 0 1 1;
#X connect 5 0 1 0;
#X connect 5 1 6 1;
#X connect 6 0 2 1;
#X connect 6 0 4 0;
#X restore 96 307 pd looper;
#X obj 101 338 pack 0 0;
#X msg 99 365 hsv \$1 \$2 1 1;
#X obj 167 308 * 0.25;
#X msg 99 279 4;
#X obj 97 432 bng 20 250 50 0 empty empty clear 0 -10 0 12 #fcfcfc #000000 #000000;
#N canvas 700 318 450 300 looper 0;
#X obj 84 29 inlet num;
#X obj 76 113 until;
#X obj 75 149 f;
#X obj 114 144 + 1;
#X obj 169 140 sel 0;
#X obj 87 71 t f f;
#X obj 114 170 mod;
#X obj 74 224 outlet nums;
#X connect 0 0 5 0;
#X connect 1 0 2 0;
#X connect 2 0 3 0;
#X connect 2 0 7 0;
#X connect 3 0 6 0;
#X connect 4 0 1 1;
#X connect 5 0 1 0;
#X connect 5 1 6 1;
#X connect 6 0 2 1;
#X connect 6 0 4 0;
#X restore 96 487 pd looper;
#X msg 96 513 rgb \$1 0 0 0;
#X msg 99 459 4;
#X obj 449 62 vsl 12 128 -2.14748e+09 2.14748e+09 0 0 empty empty empty 0 -9 0 10 #e4e4e4 #4d4d4d #373737 0 1;
#X obj 468 62 vsl 12 128 -2.14748e+09 2.14748e+09 0 0 empty empty empty 0 -9 0 10 #e4e4e4 #4d4d4d #373737 0 1;
#X obj 487 62 vsl 11 128 -2.14748e+09 2.14748e+09 0 0 empty empty empty 0 -9 0 10 #e4e4e4 #4d4d4d #373737 0 1;
#X obj 505 62 vsl 12 128 -2.14748e+09 2.14748e+09 0 0 empty empty empty 0 -9 0 10 #e4e4e4 #4d4d4d #373737 0 1;
#X msg 429 229 rotary 0 \$1;
#X msg 514 229 rotary 1 \$1;
#X msg 599 229 rotary 2 \$1;
#X msg 684 229 rotary 3 \$1;
#X connect 0 0 1 0;
#X connect 1 0 2 0;
#X connect 1 1 3 0;
#X connect 2 0 8 0;
#X connect 2 1 9 0;
#X connect 2 2 10 0;
#X connect 2 3 11 0;
#X connect 3 0 4 0;
#X connect 3 1 5 0;
#X connect 3 2 6 0;
#X connect 3 3 7 0;
#X connect 12 0 0 0;
#X connect 13 0 12 0;
#X connect 14 0 13 0;
#X connect 14 0 15 0;
#X connect 15 0 20 0;
#X connect 16 0 17 0;
#X connect 16 0 19 0;
#X connect 17 0 18 0;
#X connect 18 0 0 0;
#X connect 19 0 17 1;
#X connect 20 0 16 0;
#X connect 21 0 24 0;
#X connect 22 0 23 0;
#X connect 23 0 0 0;
#X connect 24 0 22 0;
#X connect 25 0 29 0;
#X connect 26 0 30 0;
#X connect 27 0 31 0;
#X connect 28 0 32 0;
#X connect 29 0 0 0;
#X connect 30 0 0 0;
#X connect 31 0 0 0;
#X connect 32 0 0 0;
