#N canvas 827 239 527 327 12;
#X obj 259 394 pi2c_oled;
#X obj 209 84 loadbang;
#X obj 129 154 delay 2000;
#N canvas 0 22 450 300 bongocat 1;
#X obj 239 339 outlet oled;
#X obj 232 24 inlet bang;
#X msg 414 184 clear;
#X msg 104 94 loadimage cat1 cat1.bmp;
#X msg 104 125 loadimage cat2 cat2.bmp;
#X msg 399 219 image 0 0 cat1;
#X msg 574 184 clear;
#X msg 559 219 image 0 0 cat2;
#X obj 352 99 delay 100;
#X msg 174 164 clear;
#X obj 399 143 t b b b b;
#X obj 559 143 t b b b b;
#X obj 588 276 delay 200;
#X obj 414 283 delay 200;
#X connect 1 0 3 0;
#X connect 1 0 4 0;
#X connect 1 0 8 0;
#X connect 1 0 9 0;
#X connect 2 0 0 0;
#X connect 3 0 0 0;
#X connect 4 0 0 0;
#X connect 5 0 0 0;
#X connect 6 0 0 0;
#X connect 7 0 0 0;
#X connect 8 0 10 0;
#X connect 9 0 0 0;
#X connect 10 0 0 0;
#X connect 10 1 13 0;
#X connect 10 2 5 0;
#X connect 10 3 2 0;
#X connect 11 0 0 0;
#X connect 11 1 12 0;
#X connect 11 2 7 0;
#X connect 11 3 6 0;
#X connect 12 0 10 0;
#X connect 13 0 11 0;
#X restore 129 185 pd bongocat;
#N canvas 0 22 450 300 sayhi 0;
#X msg 297 304 textsize 1;
#X msg 308 278 text 1 0 0 Hello!;
#X msg 325 246 textsize 2;
#X msg 279 334 text 1 0 20 see the README for more detailed instructions.;
#X msg 342 209 clear;
#X obj 259 159 t b b b b b b;
#X obj 259 87 inlet bang;
#X obj 258 413 outlet oled;
#X connect 0 0 7 0;
#X connect 1 0 7 0;
#X connect 2 0 7 0;
#X connect 3 0 7 0;
#X connect 4 0 7 0;
#X connect 5 0 7 0;
#X connect 5 1 3 0;
#X connect 5 2 0 0;
#X connect 5 3 1 0;
#X connect 5 4 2 0;
#X connect 5 5 4 0;
#X connect 6 0 5 0;
#X restore 279 185 pd sayhi;
#X connect 1 0 2 0;
#X connect 1 0 4 0;
#X connect 2 0 3 0;
#X connect 3 0 0 0;
#X connect 4 0 0 0;
