#N canvas 827 239 908 757 12;
#X obj 194 215 4encoder;
#X obj 287 215 8encoder;
#X obj 391 215 ssd1306;
#X msg 437 83 text 1 0 0 This is some text;
#X msg 439 118 rectangle 1 0 0 128 64;
#X obj 283 108 pi_i2c 1;
#X obj 167 287 route rotary button;
#X obj 298 287 route rotary button switch;
#X obj 101 324 route 0 1 2 3;
#X obj 201 324 route 0 1 2 3;
#X obj 298 324 route 0 1 2 3 4 5 6 7;
#X obj 474 324 route 0 1 2 3 4 5 6 7;
#X obj 582 465 tgl 25 0 empty empty empty 17 7 0 10 #e4e4e4 #4d4d4d #373737 0 1;
#X obj 329 426 tgl 25 0 empty empty empty 17 7 0 10 #e4e4e4 #4d4d4d #373737 0 1;
#X obj 361 426 tgl 25 0 empty empty empty 17 7 0 10 #e4e4e4 #4d4d4d #373737 0 1;
#X obj 393 426 tgl 25 0 empty empty empty 17 7 0 10 #e4e4e4 #4d4d4d #373737 0 1;
#X obj 425 426 tgl 25 0 empty empty empty 17 7 0 10 #e4e4e4 #4d4d4d #373737 0 1;
#X obj 457 426 tgl 25 0 empty empty empty 17 7 0 10 #e4e4e4 #4d4d4d #373737 0 1;
#X obj 489 426 tgl 25 0 empty empty empty 17 7 0 10 #e4e4e4 #4d4d4d #373737 0 1;
#X obj 521 426 tgl 25 0 empty empty empty 17 7 0 10 #e4e4e4 #4d4d4d #373737 0 1;
#X obj 553 426 tgl 25 0 empty empty empty 17 7 0 10 #e4e4e4 #4d4d4d #373737 0 1;
#X obj 78 426 tgl 25 0 empty empty empty 17 7 0 10 #e4e4e4 #4d4d4d #373737 0 1;
#X obj 110 426 tgl 25 0 empty empty empty 17 7 0 10 #e4e4e4 #4d4d4d #373737 0 1;
#X obj 142 426 tgl 25 0 empty empty empty 17 7 0 10 #e4e4e4 #4d4d4d #373737 0 1;
#X obj 174 426 tgl 25 0 empty empty empty 17 7 0 10 #e4e4e4 #4d4d4d #373737 0 1;
#X obj 84 465 vsl 17 128 0 127 0 0 empty empty empty 0 -9 0 10 #e4e4e4 #4d4d4d #373737 0 1;
#X obj 113 465 vsl 17 128 0 127 0 0 empty empty empty 0 -9 0 10 #e4e4e4 #4d4d4d #373737 0 1;
#X obj 142 465 vsl 17 128 0 127 0 0 empty empty empty 0 -9 0 10 #e4e4e4 #4d4d4d #373737 0 1;
#X obj 174 465 vsl 17 128 0 127 0 0 empty empty empty 0 -9 0 10 #e4e4e4 #4d4d4d #373737 0 1;
#X obj 338 465 vsl 17 128 0 127 0 0 empty empty empty 0 -9 0 10 #e4e4e4 #4d4d4d #373737 0 1;
#X obj 367 465 vsl 17 128 0 127 0 0 empty empty empty 0 -9 0 10 #e4e4e4 #4d4d4d #373737 0 1;
#X obj 396 465 vsl 17 128 0 127 0 0 empty empty empty 0 -9 0 10 #e4e4e4 #4d4d4d #373737 0 1;
#X obj 428 465 vsl 17 128 0 127 0 0 empty empty empty 0 -9 0 10 #e4e4e4 #4d4d4d #373737 0 1;
#X obj 460 465 vsl 17 128 0 127 0 0 empty empty empty 0 -9 0 10 #e4e4e4 #4d4d4d #373737 0 1;
#X obj 489 465 vsl 17 128 0 127 0 0 empty empty empty 0 -9 0 10 #e4e4e4 #4d4d4d #373737 0 1;
#X obj 518 465 vsl 17 128 0 127 0 0 empty empty empty 0 -9 0 10 #e4e4e4 #4d4d4d #373737 0 1;
#X obj 550 465 vsl 17 128 0 127 0 0 empty empty empty 0 -9 0 10 #e4e4e4 #4d4d4d #373737 0 1;
#X msg 242 55 rotary 0 0;
#X msg 131 55 rgb 1 244 0 0;
#X msg 20 55 hsv 0 0.3 1 1;
#X msg 439 152 graph 1 0 0 128 64 0 1 2 3 4 5 6 7;
#X obj 354 33 loadbang;
#X msg 354 61 1;
#X connect 0 0 6 0;
#X connect 1 0 7 0;
#X connect 3 0 2 0;
#X connect 4 0 2 0;
#X connect 5 0 2 0;
#X connect 5 0 1 0;
#X connect 5 0 0 0;
#X connect 6 0 8 0;
#X connect 6 1 9 0;
#X connect 7 0 10 0;
#X connect 7 1 11 0;
#X connect 7 2 12 0;
#X connect 8 0 25 0;
#X connect 8 1 26 0;
#X connect 8 2 27 0;
#X connect 8 3 28 0;
#X connect 9 0 21 0;
#X connect 9 1 22 0;
#X connect 9 2 23 0;
#X connect 9 3 24 0;
#X connect 10 0 29 0;
#X connect 10 1 30 0;
#X connect 10 2 31 0;
#X connect 10 3 32 0;
#X connect 10 4 33 0;
#X connect 10 5 34 0;
#X connect 10 6 35 0;
#X connect 10 7 36 0;
#X connect 11 0 13 0;
#X connect 11 1 14 0;
#X connect 11 2 15 0;
#X connect 11 3 16 0;
#X connect 11 4 17 0;
#X connect 11 5 18 0;
#X connect 11 6 19 0;
#X connect 11 7 20 0;
#X connect 37 0 0 0;
#X connect 37 0 1 0;
#X connect 38 0 0 0;
#X connect 38 0 1 0;
#X connect 39 0 0 0;
#X connect 39 0 1 0;
#X connect 40 0 2 0;
#X connect 41 0 42 0;
#X connect 42 0 5 0;
