#N canvas 1302 375 1525 1043 12;
#X obj 549 79 loadbang;
#X msg 549 116 \; pd dsp 1;
#X obj 123 115 websocket-server 9000;
#X obj 123 155 print received;
#X msg 297 253 text 1 0 0 Hello;
#X msg 309 226 rect 0 0 0 128 64;
#X obj 267 150 select 1;
#X obj 269 185 t b b;
#X obj 122 75 r socket;
#X obj 291 317 s socket;
#X connect 0 0 1 0;
#X connect 2 0 3 0;
#X connect 2 1 6 0;
#X connect 4 0 9 0;
#X connect 5 0 9 0;
#X connect 6 0 7 0;
#X connect 7 0 4 0;
#X connect 7 1 5 0;
#X connect 8 0 2 0;
