#N canvas 23 34 895 558 12;
#X msg 320 180 rectangle 1 0 0 128 16;
#X msg 320 150 text 1 0 0 Hello World;
#X msg 320 210 image 0 0 cat.png;
#X msg 320 240 rgb 0 255 0 0;
#X obj 250 310 ui;
#X obj 326 100 t b b b b;
#X obj 330 70 metro 1000;
#X obj 290 350 route 0 1 2 3 4 5;
#X obj 286 384 tgl 15 0 empty empty button0 20 6 0 10 #fcfcfc #000000 #000000 0 1;
#X obj 160 350 route 0 1 2 3;
#X floatatom 160 400 3 0 0 1 knob0 - - 0;
#X floatatom 160 430 3 0 0 1 knob1 - - 0;
#X floatatom 160 460 3 0 0 1 knob2 - - 0;
#X floatatom 160 490 3 0 0 1 knob3 - - 0;
#X obj 286 404 tgl 15 0 empty empty button1 20 6 0 10 #fcfcfc #000000 #000000 0 1;
#X obj 286 424 tgl 15 0 empty empty button2 20 6 0 10 #fcfcfc #000000 #000000 0 1;
#X obj 286 484 tgl 15 0 empty empty button5 20 6 0 10 #fcfcfc #000000 #000000 0 1;
#X obj 286 464 tgl 15 0 empty empty button4 20 6 0 10 #fcfcfc #000000 #000000 0 1;
#X obj 286 444 tgl 15 0 empty empty button3 20 6 0 10 #fcfcfc #000000 #000000 0 1;
#X obj 320 20 loadbang;
#X obj 320 50 tgl 15 0 empty empty empty 17 7 0 10 #fcfcfc #000000 #000000 0 1;
#X obj 50 320 print knob;
#X obj 430 360 print button;
#X obj 549 79 loadbang;
#X msg 549 116 \; pd dsp 1;
#X connect 0 0 4 0;
#X connect 1 0 4 0;
#X connect 2 0 4 0;
#X connect 3 0 4 0;
#X connect 4 0 9 0;
#X connect 4 0 21 0;
#X connect 4 1 7 0;
#X connect 4 1 22 0;
#X connect 5 0 1 0;
#X connect 5 1 0 0;
#X connect 5 2 2 0;
#X connect 5 3 3 0;
#X connect 6 0 5 0;
#X connect 7 0 8 0;
#X connect 7 1 14 0;
#X connect 7 2 15 0;
#X connect 7 3 18 0;
#X connect 7 4 17 0;
#X connect 7 5 16 0;
#X connect 9 0 10 0;
#X connect 9 1 11 0;
#X connect 9 2 12 0;
#X connect 9 3 13 0;
#X connect 19 0 20 0;
#X connect 20 0 6 0;
#X connect 23 0 24 0;
