#N canvas 827 239 527 327 12;
#X obj 18 19 tgl 25 0 empty empty LED 26 14 0 10 #191919 #e1e1e1 #e1e1e1 0 1;
#X msg 129 19 text 1 0 0 Hello World;
#N canvas 733 172 450 300 networking 0;
#X obj 404 164 oscformat led;
#X obj 520 318 list prepend send;
#X obj 520 350 list trim;
#X msg 469 284 connect localhost 9000;
#X obj 520 384 netsend -u -b;
#X obj 464 214 t b l b;
#X msg 464 249 disconnect;
#X obj 14 191 netreceive -u -b 9001;
#X obj 14 223 oscparse;
#X obj 404 128 r led;
#X obj 511 35 r oled;
#X obj 794 58 r rgb;
#X obj 61 374 s knob;
#X obj 300 374 s button;
#X msg 14 309 0 \$1;
#X msg 61 309 1 \$1;
#X msg 108 309 2 \$1;
#X msg 155 309 3 \$1;
#X msg 227 308 0 \$1;
#X msg 274 308 1 \$1;
#X msg 321 308 2 \$1;
#X msg 368 308 3 \$1;
#X obj 794 94 route 0 1 2 3;
#X obj 699 171 list;
#X obj 817 171 list;
#X obj 936 171 list;
#X obj 1054 171 list;
#X obj 835 250 r setknob;
#X obj 817 310 route 0 1 2 3;
#X obj 722 387 list;
#X obj 840 387 list;
#X obj 959 387 list;
#X obj 1077 387 list;
#X obj 699 199 oscformat rgb/0;
#X obj 817 199 oscformat rgb/1;
#X obj 936 199 oscformat rgb/2;
#X obj 1054 199 oscformat rgb/3;
#X obj 722 415 oscformat knob/0;
#X obj 840 415 oscformat knob/1;
#X obj 959 415 oscformat knob/2;
#X obj 1077 415 oscformat knob/3;
#X obj 9 259 route knob/0 knob/1 knob/2 knob/3 button/0 button/1 button/2 button/3;
#X obj 511 69 route text rectangle;
#X obj 486 109 oscformat oled/text;
#X obj 511 143 oscformat oled/rectangle;
#X connect 0 0 5 0;
#X connect 1 0 2 0;
#X connect 2 0 4 0;
#X connect 3 0 4 0;
#X connect 5 0 6 0;
#X connect 5 1 1 0;
#X connect 5 2 3 0;
#X connect 6 0 4 0;
#X connect 7 0 8 0;
#X connect 8 0 41 0;
#X connect 9 0 0 0;
#X connect 10 0 42 0;
#X connect 11 0 22 0;
#X connect 14 0 12 0;
#X connect 15 0 12 0;
#X connect 16 0 12 0;
#X connect 17 0 12 0;
#X connect 18 0 13 0;
#X connect 19 0 13 0;
#X connect 20 0 13 0;
#X connect 21 0 13 0;
#X connect 22 0 23 0;
#X connect 22 1 24 0;
#X connect 22 2 25 0;
#X connect 22 3 26 0;
#X connect 23 0 33 0;
#X connect 24 0 34 0;
#X connect 25 0 35 0;
#X connect 26 0 36 0;
#X connect 27 0 28 0;
#X connect 28 0 29 0;
#X connect 28 1 30 0;
#X connect 28 2 31 0;
#X connect 28 3 32 0;
#X connect 29 0 37 0;
#X connect 30 0 38 0;
#X connect 31 0 39 0;
#X connect 32 0 40 0;
#X connect 33 0 5 0;
#X connect 34 0 5 0;
#X connect 35 0 5 0;
#X connect 36 0 5 0;
#X connect 37 0 5 0;
#X connect 38 0 5 0;
#X connect 39 0 5 0;
#X connect 40 0 5 0;
#X connect 41 0 14 0;
#X connect 41 1 15 0;
#X connect 41 2 16 0;
#X connect 41 3 17 0;
#X connect 41 4 18 0;
#X connect 41 5 19 0;
#X connect 41 6 20 0;
#X connect 41 7 21 0;
#X connect 42 0 43 0;
#X connect 42 1 44 0;
#X connect 43 0 5 0;
#X connect 44 0 5 0;
#X restore 494 19 pd networking;
#X obj 18 59 s led;
#X obj 174 108 s oled;
#X obj 24 174 r button;
#X obj 217 189 r knob;
#X obj 217 233 route 0 1 2 3;
#X obj 14 269 tgl 25 0 empty empty empty 17 7 0 10 #191919 #e1e1e1 #e1e1e1 0 1;
#X obj 46 269 tgl 25 0 empty empty empty 17 7 0 10 #191919 #e1e1e1 #e1e1e1 0 1;
#X obj 78 269 tgl 25 0 empty empty empty 17 7 0 10 #191919 #e1e1e1 #e1e1e1 0 1;
#X obj 110 269 tgl 25 0 empty empty empty 17 7 0 10 #191919 #e1e1e1 #e1e1e1 0 1;
#X obj 222 284 vsl 17 128 0 127 0 0 empty empty empty 0 -9 0 10 #191919 #e1e1e1 #e1e1e1 0 1;
#X obj 251 284 vsl 17 128 0 127 0 0 empty empty empty 0 -9 0 10 #191919 #e1e1e1 #e1e1e1 0 1;
#X obj 280 284 vsl 17 128 0 127 0 0 empty empty empty 0 -9 0 10 #191919 #e1e1e1 #e1e1e1 0 1;
#X obj 309 284 vsl 17 128 0 127 0 0 empty empty empty 0 -9 0 10 #191919 #e1e1e1 #e1e1e1 0 1;
#X obj 24 218 route 0 1 2 3 4;
#X obj 144 269 tgl 25 0 empty empty empty 17 7 0 10 #191919 #e1e1e1 #e1e1e1 0 1;
#X obj 439 223 colors;
#X msg 439 194 pick;
#X msg 439 259 0 \$1;
#X obj 494 344 s rgb;
#X obj 496 223 colors;
#X msg 496 194 pick;
#X obj 553 223 colors;
#X msg 553 194 pick;
#X obj 610 223 colors;
#X msg 610 194 pick;
#X msg 496 259 1 \$1;
#X msg 553 259 2 \$1;
#X msg 610 259 3 \$1;
#X obj 479 149 bng 25 250 50 0 empty empty empty 17 7 0 10 #191919 #e1e1e1 #e1e1e1;
#X obj 508 149 bng 25 250 50 0 empty empty empty 17 7 0 10 #191919 #e1e1e1 #e1e1e1;
#X obj 540 149 bng 25 250 50 0 empty empty empty 17 7 0 10 #191919 #e1e1e1 #e1e1e1;
#X obj 572 149 bng 25 250 50 0 empty empty empty 17 7 0 10 #191919 #e1e1e1 #e1e1e1;
#X text 499 118 RGB LEDs;
#X msg 279 19 rectangle 0 0 0 128 64;
#X obj 217 497 s setknob;
#X msg 201 437 0 \$1;
#X msg 250 437 1 \$1;
#X msg 297 437 2 \$1;
#X msg 344 437 3 \$1;
#X text 569 468 Here is an exanple that will flassh the LED;
#X obj 582 497 loadbang;
#X obj 584 526 tgl 21 0 empty empty empty 0 -11 0 12 #fcfcfc #000000 #000000 0 1;
#X obj 582 561 metro 500;
#X obj 582 600 i;
#X obj 637 600 + 1;
#X obj 582 638 % 2;
#X obj 582 679 s led;
#X connect 0 0 3 0;
#X connect 1 0 4 0;
#X connect 5 0 16 0;
#X connect 6 0 7 0;
#X connect 7 0 12 0;
#X connect 7 1 13 0;
#X connect 7 2 14 0;
#X connect 7 3 15 0;
#X connect 12 0 38 0;
#X connect 13 0 39 0;
#X connect 14 0 40 0;
#X connect 15 0 41 0;
#X connect 16 0 8 0;
#X connect 16 1 9 0;
#X connect 16 2 10 0;
#X connect 16 3 11 0;
#X connect 16 4 17 0;
#X connect 18 0 20 0;
#X connect 19 0 18 0;
#X connect 20 0 21 0;
#X connect 22 0 28 0;
#X connect 23 0 22 0;
#X connect 24 0 29 0;
#X connect 25 0 24 0;
#X connect 26 0 30 0;
#X connect 27 0 26 0;
#X connect 28 0 21 0;
#X connect 29 0 21 0;
#X connect 30 0 21 0;
#X connect 31 0 19 0;
#X connect 32 0 23 0;
#X connect 33 0 25 0;
#X connect 34 0 27 0;
#X connect 36 0 4 0;
#X connect 38 0 37 0;
#X connect 39 0 37 0;
#X connect 40 0 37 0;
#X connect 41 0 37 0;
#X connect 43 0 44 0;
#X connect 44 0 45 0;
#X connect 45 0 46 0;
#X connect 46 0 47 0;
#X connect 46 0 48 0;
#X connect 47 0 46 1;
#X connect 48 0 49 0;
