#N canvas 52 31 910 882 12;
#X obj 410 240 loadbang;
#X obj 80 150 r \$0-message;
#X obj 50 110 s \$0-message;
#X msg 80 230 send rectangle \$1 \$2 \$3 \$4 \$5;
#X msg 240 80 rectangle 1 0 0 128 16;
#X msg 240 50 text 1 0 0 Hello World;
#X msg 140 270 send text \$@;
#X msg 240 110 image 0 0 cat.png;
#X msg 200 310 send image \$@;
#X obj 40 40 inlet message;
#X text 240 20 Examples:;
#X msg 400 330 disconnect;
#X msg 240 140 rgb 0 255 0 0;
#X obj 80 190 route rectangle text image rgb;
#X msg 225 342 send rgb \$1 \$2 \$3 \$4;
#X obj 150 480 netsend 1;
#X obj 390 610 outlet rot;
#X obj 480 610 outlet button;
#X msg 400 300 connect localhost 13001;
#X obj 420 460 netreceive -u -b 13000;
#X obj 410 560 route 0 1;
#X connect 0 0 18 0;
#X connect 1 0 13 0;
#X connect 3 0 15 0;
#X connect 4 0 2 0;
#X connect 5 0 2 0;
#X connect 6 0 15 0;
#X connect 7 0 2 0;
#X connect 8 0 15 0;
#X connect 9 0 2 0;
#X connect 11 0 15 0;
#X connect 12 0 2 0;
#X connect 13 0 3 0;
#X connect 13 1 6 0;
#X connect 13 2 8 0;
#X connect 13 3 14 0;
#X connect 14 0 15 0;
#X connect 18 0 15 0;
#X connect 19 0 20 0;
#X connect 20 0 16 0;
#X connect 20 1 17 0;
