#N canvas 827 239 617 597 12;
#X obj 152 344 pi2c_8encoder;
#X obj 141 150 loadbang;
#X obj 149 234 bng 20 250 50 0 empty empty clear 0 -10 0 12 #fcfcfc #000000 #000000;
#N canvas 700 318 450 300 looper 0;
#X obj 84 29 inlet num;
#X obj 76 113 until;
#X obj 75 149 f;
#X obj 114 144 + 1;
#X obj 169 140 sel 0;
#X obj 87 71 t f f;
#X obj 114 170 mod;
#X obj 74 224 outlet nums;
#X connect 0 0 5 0;
#X connect 1 0 2 0;
#X connect 2 0 3 0;
#X connect 2 0 7 0;
#X connect 3 0 6 0;
#X connect 4 0 1 1;
#X connect 5 0 1 0;
#X connect 5 1 6 1;
#X connect 6 0 2 1;
#X connect 6 0 4 0;
#X restore 148 289 pd looper;
#X msg 148 315 rgb \$1 0 0 0;
#X msg 151 261 8;
#X connect 1 0 2 0;
#X connect 2 0 5 0;
#X connect 3 0 4 0;
#X connect 4 0 0 0;
#X connect 5 0 3 0;
