#N canvas 588 102 1012 635 12;
#X obj 314 371 route rotary button;
#X obj 507 447 tgl 25 0 empty empty empty 17 7 0 10 #e4e4e4 #4d4d4d #373737 0 1;
#X obj 539 447 tgl 25 0 empty empty empty 17 7 0 10 #e4e4e4 #4d4d4d #373737 0 1;
#X obj 571 447 tgl 25 0 empty empty empty 17 7 0 10 #e4e4e4 #4d4d4d #373737 0 1;
#X obj 603 447 tgl 25 0 empty empty empty 17 7 0 10 #e4e4e4 #4d4d4d #373737 0 1;
#X obj 321 440 vsl 12 128 -2.14748e+09 2.14748e+09 0 0 empty empty empty 0 -9 0 10 #e4e4e4 #4d4d4d #373737 0 1;
#X obj 340 440 vsl 12 128 -2.14748e+09 2.14748e+09 0 0 empty empty empty 0 -9 0 10 #e4e4e4 #4d4d4d #373737 0 1;
#X obj 359 440 vsl 11 128 -2.14748e+09 2.14748e+09 0 0 empty empty empty 0 -9 0 10 #e4e4e4 #4d4d4d #373737 0 1;
#X obj 377 440 vsl 12 128 -2.14748e+09 2.14748e+09 0 0 empty empty empty 0 -9 0 10 #e4e4e4 #4d4d4d #373737 0 1;
#X obj 312 253 tgl 25 0 empty empty empty 17 7 0 10 #e4e4e4 #4d4d4d #373737 0 1;
#X obj 314 212 loadbang;
#X obj 97 252 bng 20 250 50 0 empty empty rainbow 0 -10 0 12 #fcfcfc #000000 #000000;
#N canvas 700 318 450 300 looper 0;
#X obj 84 29 inlet num;
#X obj 76 113 until;
#X obj 75 149 f;
#X obj 114 144 + 1;
#X obj 169 140 sel 0;
#X obj 87 71 t f f;
#X obj 114 170 mod;
#X obj 74 224 outlet nums;
#X connect 0 0 5 0;
#X connect 1 0 2 0;
#X connect 2 0 3 0;
#X connect 2 0 7 0;
#X connect 3 0 6 0;
#X connect 4 0 1 1;
#X connect 5 0 1 0;
#X connect 5 1 6 1;
#X connect 6 0 2 1;
#X connect 6 0 4 0;
#X restore 96 307 pd looper;
#X obj 101 338 pack 0 0;
#X msg 99 365 hsv \$1 \$2 1 1;
#X obj 97 432 bng 20 250 50 0 empty empty clear 0 -10 0 12 #fcfcfc #000000 #000000;
#N canvas 700 318 450 300 looper 0;
#X obj 84 29 inlet num;
#X obj 76 113 until;
#X obj 75 149 f;
#X obj 114 144 + 1;
#X obj 169 140 sel 0;
#X obj 87 71 t f f;
#X obj 114 170 mod;
#X obj 74 224 outlet nums;
#X connect 0 0 5 0;
#X connect 1 0 2 0;
#X connect 2 0 3 0;
#X connect 2 0 7 0;
#X connect 3 0 6 0;
#X connect 4 0 1 1;
#X connect 5 0 1 0;
#X connect 5 1 6 1;
#X connect 6 0 2 1;
#X connect 6 0 4 0;
#X restore 96 487 pd looper;
#X msg 96 513 rgb \$1 0 0 0;
#X obj 449 62 vsl 12 128 -2.14748e+09 2.14748e+09 0 0 empty empty empty 0 -9 0 10 #e4e4e4 #4d4d4d #373737 0 1;
#X obj 468 62 vsl 12 128 -2.14748e+09 2.14748e+09 0 0 empty empty empty 0 -9 0 10 #e4e4e4 #4d4d4d #373737 0 1;
#X obj 487 62 vsl 11 128 -2.14748e+09 2.14748e+09 0 0 empty empty empty 0 -9 0 10 #e4e4e4 #4d4d4d #373737 0 1;
#X obj 505 62 vsl 12 128 -2.14748e+09 2.14748e+09 0 0 empty empty empty 0 -9 0 10 #e4e4e4 #4d4d4d #373737 0 1;
#X msg 429 229 rotary 0 \$1;
#X msg 514 229 rotary 1 \$1;
#X msg 599 229 rotary 2 \$1;
#X msg 684 229 rotary 3 \$1;
#X msg 703 371 \; pd dsp 1;
#X obj 532 63 vsl 12 128 -2.14748e+09 2.14748e+09 0 0 empty empty empty 0 -9 0 10 #e4e4e4 #4d4d4d #373737 0 1;
#X obj 551 63 vsl 12 128 -2.14748e+09 2.14748e+09 0 0 empty empty empty 0 -9 0 10 #e4e4e4 #4d4d4d #373737 0 1;
#X obj 570 63 vsl 11 128 -2.14748e+09 2.14748e+09 0 0 empty empty empty 0 -9 0 10 #e4e4e4 #4d4d4d #373737 0 1;
#X obj 588 63 vsl 12 128 -2.14748e+09 2.14748e+09 0 0 empty empty empty 0 -9 0 10 #e4e4e4 #4d4d4d #373737 0 1;
#X msg 99 279 8;
#X msg 99 459 8;
#X obj 314 339 pi2c_8encoder;
#X obj 542 367 print pi2c_8encoder;
#X obj 399 441 vsl 12 128 -2.14748e+09 2.14748e+09 0 0 empty empty empty 0 -9 0 10 #e4e4e4 #4d4d4d #373737 0 1;
#X obj 418 441 vsl 12 128 -2.14748e+09 2.14748e+09 0 0 empty empty empty 0 -9 0 10 #e4e4e4 #4d4d4d #373737 0 1;
#X obj 437 441 vsl 11 128 -2.14748e+09 2.14748e+09 0 0 empty empty empty 0 -9 0 10 #e4e4e4 #4d4d4d #373737 0 1;
#X obj 455 441 vsl 12 128 -2.14748e+09 2.14748e+09 0 0 empty empty empty 0 -9 0 10 #e4e4e4 #4d4d4d #373737 0 1;
#X obj 318 403 route 0 1 2 3 4 5 6 7;
#X obj 519 404 route 0 1 2 3 4 5 6 7;
#X obj 637 448 tgl 25 0 empty empty empty 17 7 0 10 #e4e4e4 #4d4d4d #373737 0 1;
#X obj 669 448 tgl 25 0 empty empty empty 17 7 0 10 #e4e4e4 #4d4d4d #373737 0 1;
#X obj 701 448 tgl 25 0 empty empty empty 17 7 0 10 #e4e4e4 #4d4d4d #373737 0 1;
#X obj 733 448 tgl 25 0 empty empty empty 17 7 0 10 #e4e4e4 #4d4d4d #373737 0 1;
#X msg 564 265 rotary 4 \$1;
#X msg 649 265 rotary 5 \$1;
#X msg 734 264 rotary 6 \$1;
#X msg 819 265 rotary 7 \$1;
#X obj 167 308 * 0.125;
#X obj 314 299 metro 50;
#X connect 0 0 39 0;
#X connect 0 1 40 0;
#X connect 9 0 50 0;
#X connect 10 0 9 0;
#X connect 10 0 11 0;
#X connect 10 0 26 0;
#X connect 11 0 31 0;
#X connect 12 0 13 0;
#X connect 12 0 49 0;
#X connect 13 0 14 0;
#X connect 14 0 33 0;
#X connect 15 0 32 0;
#X connect 16 0 17 0;
#X connect 17 0 33 0;
#X connect 18 0 22 0;
#X connect 19 0 23 0;
#X connect 20 0 24 0;
#X connect 21 0 25 0;
#X connect 22 0 33 0;
#X connect 23 0 33 0;
#X connect 24 0 33 0;
#X connect 25 0 33 0;
#X connect 27 0 45 0;
#X connect 28 0 46 0;
#X connect 29 0 47 0;
#X connect 30 0 48 0;
#X connect 31 0 12 0;
#X connect 32 0 16 0;
#X connect 33 0 0 0;
#X connect 33 0 34 0;
#X connect 39 0 5 0;
#X connect 39 1 6 0;
#X connect 39 2 7 0;
#X connect 39 3 8 0;
#X connect 39 4 35 0;
#X connect 39 5 36 0;
#X connect 39 6 37 0;
#X connect 39 7 38 0;
#X connect 40 0 1 0;
#X connect 40 1 2 0;
#X connect 40 2 3 0;
#X connect 40 3 4 0;
#X connect 40 4 41 0;
#X connect 40 5 42 0;
#X connect 40 6 43 0;
#X connect 40 7 44 0;
#X connect 45 0 33 0;
#X connect 46 0 33 0;
#X connect 47 0 33 0;
#X connect 48 0 33 0;
#X connect 49 0 13 1;
#X connect 50 0 33 0;
